<?xml version="1.0" encoding="UTF-8"?>
<svg xmlns="http://www.w3.org/2000/svg" xmlns:xlink="http://www.w3.org/1999/xlink" viewBox="0 0 223 223">
  <defs>
    <style>
      .cls-1 {
        fill: #eff7f6;
      }

      .cls-1, .cls-2 {
        isolation: isolate;
      }

      .cls-2 {
        fill: url(#Dégradé_sans_nom_18);
        stroke: #fff;
        stroke-miterlimit: 10;
        stroke-width: 6px;
      }

      .cls-3 {
        fill: #ededed;
      }
    </style>
    <linearGradient id="Dégradé_sans_nom_18" data-name="Dégradé sans nom 18" x1="109.01" y1="19.95" x2="116.01" y2="276.95" gradientUnits="userSpaceOnUse">
      <stop offset=".39" stop-color="#084447"/>
      <stop offset=".88" stop-color="#45b492"/>
    </linearGradient>
  </defs>
  <g id="Calque_2" data-name="Calque 2">
    <circle class="cls-2" cx="111.5" cy="111.5" r="108.5"/>
  </g>
  <g id="Calque_3" data-name="Calque 3">
    <ellipse class="cls-1" cx="111.5" cy="52.88" rx="62" ry="37.12"/>
    <path class="cls-3" d="M32.3,146.85c5.76,16.76,14.3,21.7,9.12,25.22-2.58,1.75-14.66-12.55-20.42-29.3-5.76-16.76-3.48-30.72-.43-31.38,3.05-.66,5.97,18.71,11.73,35.47Z"/>
    <path class="cls-3" d="M69.68,190.43c15.98,3.66,20.71,4.92,14.59,8.47-3.07,1.78-11.9.06-21.45-5.7-9.55-5.76-14.28-13.54-13.15-15.16,1.12-1.61,9.14,9.89,20.01,12.38Z"/>
  </g>
</svg>